<svg xmlns="http://www.w3.org/2000/svg" xmlns:xlink="http://www.w3.org/1999/xlink" version="1.1" width="256" height="256" viewBox="0 0 256 256" xml:space="preserve">

<defs>
</defs>
<g style="stroke: none; stroke-width: 0; stroke-dasharray: none; stroke-linecap: butt; stroke-linejoin: miter; stroke-miterlimit: 10; fill: none; fill-rule: nonzero; opacity: 1;" transform="translate(1.4065934065934016 1.4065934065934016) scale(2.81 2.81)" >
	<path d="M 82.091 12.108 H 7.909 C 4.093 12.108 1 15.201 1 19.017 v 8.102 h 88 v -8.102 C 89 15.201 85.907 12.108 82.091 12.108 z" style="stroke: none; stroke-width: 1; stroke-dasharray: none; stroke-linecap: butt; stroke-linejoin: miter; stroke-miterlimit: 10; fill: rgb(255,91,91); fill-rule: nonzero; opacity: 1;" transform=" matrix(1 0 0 1 0 0) " stroke-linecap="round" />
	<path d="M 1 27.118 v 49.258 c 0 3.816 3.093 6.909 6.909 6.909 h 74.182 c 3.816 0 6.909 -3.093 6.909 -6.909 V 27.118 H 1 z" style="stroke: none; stroke-width: 1; stroke-dasharray: none; stroke-linecap: butt; stroke-linejoin: miter; stroke-miterlimit: 10; fill: rgb(213,239,243); fill-rule: nonzero; opacity: 1;" transform=" matrix(1 0 0 1 0 0) " stroke-linecap="round" />
	<path d="M 39.738 72.734 c -1.329 0 -2.598 -0.552 -3.503 -1.527 l -10.493 -11.29 c -1.798 -1.935 -1.687 -4.961 0.248 -6.759 c 1.935 -1.799 4.961 -1.689 6.759 0.247 l 6.91 7.435 l 17.523 -19.957 c 1.752 -1.974 4.774 -2.154 6.751 -0.398 c 1.974 1.755 2.153 4.777 0.398 6.752 L 43.313 71.129 c -0.895 1.008 -2.174 1.59 -3.522 1.606 C 39.773 72.734 39.755 72.734 39.738 72.734 z" style="stroke: none; stroke-width: 1; stroke-dasharray: none; stroke-linecap: butt; stroke-linejoin: miter; stroke-miterlimit: 10; fill: rgb(84,227,96); fill-rule: nonzero; opacity: 1;" transform=" matrix(1 0 0 1 0 0) " stroke-linecap="round" />
	<path d="M 39.738 73.734 c -1.603 0 -3.146 -0.673 -4.236 -1.846 L 25.009 60.598 c -1.052 -1.131 -1.6 -2.604 -1.543 -4.148 c 0.057 -1.543 0.711 -2.972 1.842 -4.023 c 2.335 -2.172 6.002 -2.036 8.172 0.299 l 6.156 6.625 L 56.43 40.225 c 1.028 -1.159 2.441 -1.845 3.983 -1.937 c 1.531 -0.093 3.027 0.423 4.184 1.451 c 2.383 2.119 2.599 5.781 0.48 8.164 L 44.063 71.789 c -1.082 1.219 -2.634 1.927 -4.261 1.945 C 39.799 73.734 39.742 73.734 39.738 73.734 z M 29.245 52.881 c -0.923 0 -1.847 0.334 -2.575 1.01 c -0.74 0.688 -1.168 1.623 -1.205 2.633 c -0.037 1.009 0.321 1.973 1.009 2.713 l 10.493 11.291 c 0.713 0.768 1.723 1.207 2.771 1.207 h 0.053 c 1.053 -0.013 2.068 -0.475 2.774 -1.27 l 21.014 -23.887 c 1.389 -1.563 1.248 -3.958 -0.311 -5.344 c -0.756 -0.671 -1.724 -1.003 -2.737 -0.949 c -1.009 0.06 -1.933 0.508 -2.603 1.263 L 40.41 61.501 c -0.187 0.212 -0.455 0.336 -0.737 0.34 c -0.286 -0.007 -0.554 -0.111 -0.747 -0.319 l -6.91 -7.436 C 31.272 53.286 30.26 52.881 29.245 52.881 z" style="stroke: none; stroke-width: 1; stroke-dasharray: none; stroke-linecap: butt; stroke-linejoin: miter; stroke-miterlimit: 10; fill: rgb(0,0,0); fill-rule: nonzero; opacity: 1;" transform=" matrix(1 0 0 1 0 0) " stroke-linecap="round" />
	<path d="M 89 28.118 H 1 c -0.552 0 -1 -0.448 -1 -1 v -8.102 c 0 -4.361 3.548 -7.909 7.909 -7.909 h 74.182 c 4.361 0 7.909 3.548 7.909 7.909 v 8.102 C 90 27.67 89.553 28.118 89 28.118 z M 2 26.118 h 86 v -7.102 c 0 -3.258 -2.65 -5.909 -5.909 -5.909 H 7.909 C 4.651 13.107 2 15.758 2 19.017 V 26.118 z" style="stroke: none; stroke-width: 1; stroke-dasharray: none; stroke-linecap: butt; stroke-linejoin: miter; stroke-miterlimit: 10; fill: rgb(0,0,0); fill-rule: nonzero; opacity: 1;" transform=" matrix(1 0 0 1 0 0) " stroke-linecap="round" />
	<path d="M 82.091 84.285 H 7.909 C 3.548 84.285 0 80.737 0 76.376 V 27.118 c 0 -0.552 0.448 -1 1 -1 h 88 c 0.553 0 1 0.448 1 1 v 49.258 C 90 80.737 86.452 84.285 82.091 84.285 z M 2 28.118 v 48.258 c 0 3.259 2.651 5.909 5.909 5.909 h 74.182 c 3.259 0 5.909 -2.65 5.909 -5.909 V 28.118 H 2 z" style="stroke: none; stroke-width: 1; stroke-dasharray: none; stroke-linecap: butt; stroke-linejoin: miter; stroke-miterlimit: 10; fill: rgb(0,0,0); fill-rule: nonzero; opacity: 1;" transform=" matrix(1 0 0 1 0 0) " stroke-linecap="round" />
	<path d="M 28.696 12.108 h -7.393 V 8.411 c 0 -2.041 1.655 -3.696 3.696 -3.696 h 0 c 2.041 0 3.696 1.655 3.696 3.696 V 12.108 z" style="stroke: none; stroke-width: 1; stroke-dasharray: none; stroke-linecap: butt; stroke-linejoin: miter; stroke-miterlimit: 10; fill: rgb(213,239,243); fill-rule: nonzero; opacity: 1;" transform=" matrix(1 0 0 1 0 0) " stroke-linecap="round" />
	<path d="M 68.696 12.108 h -7.393 V 8.411 c 0 -2.041 1.655 -3.696 3.696 -3.696 l 0 0 c 2.041 0 3.696 1.655 3.696 3.696 V 12.108 z" style="stroke: none; stroke-width: 1; stroke-dasharray: none; stroke-linecap: butt; stroke-linejoin: miter; stroke-miterlimit: 10; fill: rgb(213,239,243); fill-rule: nonzero; opacity: 1;" transform=" matrix(1 0 0 1 0 0) " stroke-linecap="round" />
	<path d="M 28.696 13.107 h -7.393 c -0.552 0 -1 -0.448 -1 -1 V 8.411 c 0 -2.589 2.107 -4.696 4.696 -4.696 s 4.696 2.107 4.696 4.696 v 3.696 C 29.696 12.66 29.249 13.107 28.696 13.107 z M 22.304 11.107 h 5.393 V 8.411 c 0 -1.487 -1.209 -2.696 -2.696 -2.696 s -2.696 1.209 -2.696 2.696 V 11.107 z" style="stroke: none; stroke-width: 1; stroke-dasharray: none; stroke-linecap: butt; stroke-linejoin: miter; stroke-miterlimit: 10; fill: rgb(0,0,0); fill-rule: nonzero; opacity: 1;" transform=" matrix(1 0 0 1 0 0) " stroke-linecap="round" />
	<path d="M 68.696 13.107 h -7.393 c -0.553 0 -1 -0.448 -1 -1 V 8.411 c 0 -2.589 2.106 -4.696 4.696 -4.696 s 4.696 2.107 4.696 4.696 v 3.696 C 69.696 12.66 69.249 13.107 68.696 13.107 z M 62.304 11.107 h 5.393 V 8.411 c 0 -1.487 -1.21 -2.696 -2.696 -2.696 s -2.696 1.209 -2.696 2.696 V 11.107 z" style="stroke: none; stroke-width: 1; stroke-dasharray: none; stroke-linecap: butt; stroke-linejoin: miter; stroke-miterlimit: 10; fill: rgb(0,0,0); fill-rule: nonzero; opacity: 1;" transform=" matrix(1 0 0 1 0 0) " stroke-linecap="round" />
</g>
</svg>